# xmcd
#
# Track frame offsets:
#	182
#	13507
#	24887
#	37710
#	49040
#	67685
#	79417
#	95472
#	111015
#	130112
#	143997
#	153577
#	164590
#	176380
#	188560
#	205792
#	222212
#	234062
#	246892
#	258300
#
# Disc length: 3682
#
# Revision: 2
# Processed by: cddbd v1.5.1PL0 Copyright (c) Steve Scherf et al.
# Submitted via: EasyCDDAExtractor 5.0.6
# Normalized: r1:DSETVAR1
#
DISCID=f70e6014
DTITLE=Various Artist - Big Country Classics Vol. 2
DYEAR=1988
DGENRE=Country
TTITLE0=Faron Young - It's Four In The Morning
TTITLE1=Donna Fargo - Happiest Girl In The Whole USA
TTITLE2=Conway Twitty - I Can't Stop Loving You
TTITLE3=Kendalls - Sweet Desire Old Fashioned Love
TTITLE4=Waylon Jennings - I've Always Been Crazy
TTITLE5=John Conlee - Backside Of 30
TTITLE6=Willie Nelson - Blue Skies
TTITLE7=Dolly Parton - Heartbreaker
TTITLE8=Marty Robbins - El Paso City
TTITLE9=Tanya Tucker - Blood Red And Going Down
TTITLE10=Tom T. Hall - I Love
TTITLE11=Don Williams - It Must Be Love
TTITLE12=Charlie Pride - It's Going To Take A Little Bit Longer
TTITLE13=Charlie Rich - A Very Special Love Song
TTITLE14=Ray Price - You're The Best Thing That Ever Happened To Me
TTITLE15=Ronnie Milsap - It Was Almost Like A Song
TTITLE16=Donna Fargo - Funny Face
TTITLE17=Jerry Lee Lewis - There Must Be More To Love Than This
TTITLE18=Loretta Lynn - Out Of My Head And Back In My Bed
TTITLE19=Billy Swann - I Can Help
EXTD=Trax Music Ltd. TRXCD 5003\ndiscext1=20 Number One Hits Of The 70's\n
EXTT0=
EXTT1=
EXTT2=
EXTT3=
EXTT4=
EXTT5=
EXTT6=
EXTT7=
EXTT8=
EXTT9=
EXTT10=
EXTT11=
EXTT12=
EXTT13=
EXTT14=
EXTT15=
EXTT16=
EXTT17=
EXTT18=
EXTT19=
PLAYORDER=
